<?xml version="1.0" encoding="utf-8"?>
<!-- Generator: Adobe Illustrator 21.0.0, SVG Export Plug-In . SVG Version: 6.00 Build 0)  -->
<svg version="1.1" id="Layer_1" xmlns="http://www.w3.org/2000/svg" xmlns:xlink="http://www.w3.org/1999/xlink" x="0px" y="0px"
	 viewBox="0 0 252.4 142.2" style="enable-background:new 0 0 252.4 142.2;" xml:space="preserve">
<style type="text/css">
	.st0{fill-rule:evenodd;clip-rule:evenodd;fill:#FFFFFF;}
	.st1{fill:none;stroke:#000000;stroke-width:0.6006;stroke-linecap:round;stroke-linejoin:round;stroke-miterlimit:10;}
	
		.st2{clip-path:url(#SVGID_2_);fill:none;stroke:#000000;stroke-width:0.6006;stroke-linecap:round;stroke-linejoin:round;stroke-miterlimit:10;}
	.st3{clip-path:url(#SVGID_4_);}
	.st4{font-family:'Consolas';}
	.st5{font-size:6.025px;}
	.st6{fill-rule:evenodd;clip-rule:evenodd;fill:#F2F2F2;}
	.st7{clip-path:url(#SVGID_6_);}
	.st8{clip-path:url(#SVGID_8_);}
	.st9{clip-path:url(#SVGID_10_);}
	.st10{clip-path:url(#SVGID_12_);}
	.st11{clip-path:url(#SVGID_14_);}
	.st12{clip-path:url(#SVGID_16_);}
	.st13{clip-path:url(#SVGID_18_);}
	.st14{fill-rule:evenodd;clip-rule:evenodd;fill:#EA700D;}
	.st15{fill:none;stroke:#9C4A09;stroke-width:0.6006;stroke-linecap:round;stroke-linejoin:round;stroke-miterlimit:10;}
	.st16{clip-path:url(#SVGID_20_);}
	.st17{fill:#9C4A09;}
	.st18{font-family:'Calibri';}
	.st19{font-size:7.825px;}
	.st20{clip-path:url(#SVGID_22_);}
	.st21{clip-path:url(#SVGID_24_);}
	.st22{clip-path:url(#SVGID_26_);}
	.st23{clip-path:url(#SVGID_28_);}
	.st24{clip-path:url(#SVGID_30_);}
	.st25{clip-path:url(#SVGID_32_);}
	.st26{clip-path:url(#SVGID_34_);}
	.st27{clip-path:url(#SVGID_36_);}
	.st28{clip-path:url(#SVGID_38_);}
	.st29{clip-path:url(#SVGID_40_);}
	.st30{clip-path:url(#SVGID_42_);}
	.st31{clip-path:url(#SVGID_44_);}
	.st32{clip-path:url(#SVGID_46_);}
	.st33{clip-path:url(#SVGID_48_);}
	.st34{clip-path:url(#SVGID_50_);}
	.st35{clip-path:url(#SVGID_52_);}
	.st36{clip-path:url(#SVGID_54_);}
	.st37{clip-path:url(#SVGID_56_);}
	.st38{clip-path:url(#SVGID_58_);}
	.st39{font-size:6px;}
	.st40{clip-path:url(#SVGID_60_);}
	.st41{clip-path:url(#SVGID_62_);}
	.st42{clip-path:url(#SVGID_64_);}
	.st43{clip-path:url(#SVGID_66_);}
</style>
<rect x="3.9" y="67.2" class="st0" width="97.8" height="72.3"/>
<rect x="3.9" y="67.2" class="st1" width="97.8" height="72.3"/>
<path d="M34.1,77.6c-0.2-0.2-0.4-0.4-0.6-0.5C33.4,77,33.2,77,33,77c-0.2,0-0.3,0-0.5,0.1c-0.1,0.1-0.2,0.2-0.3,0.3
	c-0.1,0.1-0.1,0.3-0.2,0.4c0,0.2-0.1,0.3-0.1,0.5c0,0.2,0,0.3,0,0.5c0,0.2,0.1,0.3,0.2,0.5c0.1,0.1,0.2,0.2,0.3,0.3
	c0.1,0.1,0.3,0.1,0.5,0.1c0.1,0,0.2,0,0.3,0c0.1,0,0.2-0.1,0.3-0.1c0.1-0.1,0.2-0.1,0.3-0.2c0.1-0.1,0.2-0.2,0.3-0.3V77.6z
	 M34.8,80.1C34.8,80.1,34.8,80.2,34.8,80.1C34.8,80.2,34.8,80.2,34.8,80.1c-0.1,0.1-0.1,0.1-0.2,0.1c0,0-0.1,0-0.1,0
	c-0.1,0-0.1,0-0.2,0c0,0-0.1,0-0.1,0s0,0-0.1,0c0,0,0,0,0-0.1v-0.5c-0.2,0.2-0.4,0.4-0.6,0.5c-0.2,0.1-0.5,0.2-0.7,0.2
	c-0.3,0-0.5-0.1-0.7-0.2c-0.2-0.1-0.4-0.2-0.5-0.4c-0.1-0.2-0.2-0.4-0.3-0.6c-0.1-0.2-0.1-0.5-0.1-0.7c0-0.3,0-0.6,0.1-0.8
	c0.1-0.2,0.2-0.5,0.3-0.6c0.1-0.2,0.3-0.3,0.5-0.4c0.2-0.1,0.4-0.1,0.7-0.1c0.2,0,0.4,0,0.6,0.1c0.2,0.1,0.4,0.2,0.6,0.4v-2
	c0,0,0,0,0-0.1c0,0,0,0,0.1,0c0,0,0.1,0,0.1,0c0,0,0.1,0,0.2,0c0.1,0,0.1,0,0.2,0c0,0,0.1,0,0.1,0c0,0,0,0,0.1,0c0,0,0,0,0,0.1V80.1
	z M30.7,80.1C30.7,80.1,30.7,80.2,30.7,80.1C30.6,80.2,30.6,80.2,30.7,80.1c-0.1,0.1-0.1,0.1-0.2,0.1c0,0-0.1,0-0.2,0
	c-0.1,0-0.1,0-0.2,0c0,0-0.1,0-0.1,0c0,0,0,0-0.1,0c0,0,0,0,0-0.1v-2.1c0-0.2,0-0.4-0.1-0.5c0-0.1-0.1-0.2-0.1-0.3
	c-0.1-0.1-0.2-0.2-0.3-0.2c-0.1,0-0.2-0.1-0.4-0.1c-0.2,0-0.4,0.1-0.5,0.2c-0.2,0.1-0.4,0.3-0.6,0.5v2.5c0,0,0,0,0,0.1
	c0,0,0,0-0.1,0c0,0-0.1,0-0.1,0c0,0-0.1,0-0.2,0c-0.1,0-0.1,0-0.2,0c0,0-0.1,0-0.1,0c0,0,0,0-0.1,0c0,0,0,0,0-0.1v-3.5
	c0,0,0,0,0-0.1c0,0,0,0,0.1,0c0,0,0.1,0,0.1,0s0.1,0,0.2,0c0.1,0,0.1,0,0.2,0c0,0,0.1,0,0.1,0c0,0,0,0,0,0c0,0,0,0,0,0.1v0.5
	c0.2-0.2,0.4-0.4,0.7-0.5c0.2-0.1,0.4-0.2,0.7-0.2c0.3,0,0.5,0,0.7,0.1c0.2,0.1,0.3,0.2,0.4,0.3c0.1,0.1,0.2,0.3,0.2,0.5
	c0,0.2,0.1,0.4,0.1,0.6V80.1z M25.1,78c0-0.3-0.1-0.6-0.2-0.8c-0.2-0.2-0.4-0.3-0.8-0.3c-0.2,0-0.3,0-0.5,0.1
	c-0.1,0.1-0.2,0.1-0.3,0.2c-0.1,0.1-0.2,0.2-0.2,0.3c0,0.1-0.1,0.3-0.1,0.4H25.1z M25.8,78.2c0,0.1,0,0.2-0.1,0.2
	c-0.1,0-0.1,0.1-0.2,0.1H23c0,0.2,0,0.4,0.1,0.5c0,0.2,0.1,0.3,0.2,0.4c0.1,0.1,0.2,0.2,0.4,0.3c0.2,0.1,0.4,0.1,0.6,0.1
	c0.2,0,0.3,0,0.5,0c0.1,0,0.3-0.1,0.4-0.1c0.1,0,0.2-0.1,0.3-0.1c0.1,0,0.1,0,0.2,0c0,0,0,0,0.1,0c0,0,0,0,0,0c0,0,0,0,0,0.1
	c0,0,0,0.1,0,0.1c0,0,0,0.1,0,0.1c0,0,0,0,0,0.1c0,0,0,0,0,0.1c0,0,0,0,0,0c0,0-0.1,0-0.1,0.1c-0.1,0-0.2,0.1-0.3,0.1
	c-0.1,0-0.3,0.1-0.4,0.1c-0.2,0-0.3,0-0.5,0c-0.3,0-0.6,0-0.8-0.1c-0.2-0.1-0.4-0.2-0.6-0.4c-0.2-0.2-0.3-0.4-0.4-0.6
	c-0.1-0.2-0.1-0.5-0.1-0.8c0-0.3,0-0.6,0.1-0.8c0.1-0.2,0.2-0.4,0.4-0.6c0.2-0.2,0.4-0.3,0.6-0.4c0.2-0.1,0.5-0.1,0.8-0.1
	c0.3,0,0.6,0,0.8,0.1c0.2,0.1,0.4,0.2,0.5,0.4c0.1,0.2,0.2,0.3,0.3,0.5c0.1,0.2,0.1,0.4,0.1,0.6V78.2z M20.8,80.5
	c0-0.2-0.1-0.3-0.2-0.3S20.3,80,20.1,80l-1,0c-0.1,0.1-0.2,0.1-0.2,0.2c-0.1,0.1-0.1,0.1-0.1,0.2c0,0.1-0.1,0.1-0.1,0.2
	c0,0.1,0,0.1,0,0.2c0,0.2,0.1,0.3,0.3,0.4c0.2,0.1,0.5,0.1,0.8,0.1c0.2,0,0.4,0,0.5-0.1c0.1,0,0.3-0.1,0.4-0.2
	c0.1-0.1,0.2-0.1,0.2-0.2C20.8,80.6,20.8,80.6,20.8,80.5z M20.5,77.7c0-0.2-0.1-0.4-0.2-0.6c-0.1-0.1-0.4-0.2-0.6-0.2
	c-0.1,0-0.3,0-0.4,0.1c-0.1,0-0.2,0.1-0.3,0.2c-0.1,0.1-0.1,0.2-0.2,0.3s0,0.2,0,0.3c0,0.2,0.1,0.4,0.2,0.5c0.1,0.1,0.3,0.2,0.6,0.2
	c0.1,0,0.3,0,0.4-0.1c0.1,0,0.2-0.1,0.3-0.2c0.1-0.1,0.1-0.2,0.2-0.2C20.4,77.9,20.5,77.8,20.5,77.7z M21.6,76.8c0,0.1,0,0.2,0,0.2
	c0,0-0.1,0.1-0.1,0.1h-0.6c0.1,0.1,0.2,0.2,0.2,0.3s0.1,0.2,0.1,0.4c0,0.2,0,0.4-0.1,0.5c-0.1,0.2-0.2,0.3-0.3,0.4
	c-0.1,0.1-0.3,0.2-0.5,0.2c-0.2,0.1-0.4,0.1-0.6,0.1c-0.2,0-0.3,0-0.4-0.1c-0.1,0-0.3-0.1-0.3-0.1c-0.1,0-0.1,0.1-0.1,0.2
	c0,0.1,0,0.1,0,0.2c0,0.1,0,0.2,0.1,0.2c0.1,0.1,0.2,0.1,0.4,0.1l1,0c0.2,0,0.4,0,0.5,0.1c0.2,0,0.3,0.1,0.4,0.2
	c0.1,0.1,0.2,0.2,0.3,0.3c0.1,0.1,0.1,0.3,0.1,0.4c0,0.2,0,0.3-0.1,0.5c-0.1,0.1-0.2,0.3-0.3,0.4c-0.2,0.1-0.3,0.2-0.6,0.3
	c-0.2,0.1-0.5,0.1-0.8,0.1c-0.3,0-0.6,0-0.8-0.1c-0.2,0-0.4-0.1-0.5-0.2c-0.1-0.1-0.2-0.2-0.3-0.3c-0.1-0.1-0.1-0.2-0.1-0.4
	c0-0.1,0-0.2,0-0.3c0-0.1,0.1-0.2,0.1-0.2c0-0.1,0.1-0.1,0.2-0.2c0.1-0.1,0.2-0.1,0.2-0.2c-0.1-0.1-0.2-0.1-0.3-0.2
	c-0.1-0.1-0.1-0.2-0.1-0.3c0-0.2,0-0.3,0.1-0.4c0.1-0.1,0.2-0.2,0.3-0.3c-0.1-0.1-0.2-0.2-0.2-0.3c-0.1-0.1-0.1-0.3-0.1-0.4
	c0-0.2,0-0.4,0.1-0.5c0.1-0.2,0.2-0.3,0.3-0.4c0.1-0.1,0.3-0.2,0.5-0.3c0.2-0.1,0.4-0.1,0.6-0.1c0.1,0,0.2,0,0.3,0
	c0.1,0,0.2,0,0.3,0h1.2c0,0,0.1,0,0.1,0.1C21.5,76.6,21.6,76.7,21.6,76.8z M16.7,78c0-0.3-0.1-0.6-0.2-0.8c-0.2-0.2-0.4-0.3-0.8-0.3
	c-0.2,0-0.3,0-0.5,0.1c-0.1,0.1-0.2,0.1-0.3,0.2c-0.1,0.1-0.2,0.2-0.2,0.3c0,0.1-0.1,0.3-0.1,0.4H16.7z M17.4,78.2
	c0,0.1,0,0.2-0.1,0.2c-0.1,0-0.1,0.1-0.2,0.1h-2.5c0,0.2,0,0.4,0.1,0.5c0,0.2,0.1,0.3,0.2,0.4s0.2,0.2,0.4,0.3
	c0.2,0.1,0.4,0.1,0.6,0.1c0.2,0,0.3,0,0.5,0c0.1,0,0.3-0.1,0.4-0.1c0.1,0,0.2-0.1,0.3-0.1c0.1,0,0.1,0,0.2,0c0,0,0,0,0.1,0
	c0,0,0,0,0,0c0,0,0,0,0,0.1c0,0,0,0.1,0,0.1c0,0,0,0.1,0,0.1c0,0,0,0,0,0.1c0,0,0,0,0,0.1c0,0,0,0,0,0c0,0-0.1,0-0.1,0.1
	c-0.1,0-0.2,0.1-0.3,0.1c-0.1,0-0.3,0.1-0.4,0.1c-0.2,0-0.3,0-0.5,0c-0.3,0-0.6,0-0.8-0.1c-0.2-0.1-0.4-0.2-0.6-0.4
	c-0.2-0.2-0.3-0.4-0.4-0.6c-0.1-0.2-0.1-0.5-0.1-0.8c0-0.3,0-0.6,0.1-0.8c0.1-0.2,0.2-0.4,0.4-0.6c0.2-0.2,0.4-0.3,0.6-0.4
	c0.2-0.1,0.5-0.1,0.8-0.1c0.3,0,0.6,0,0.8,0.1c0.2,0.1,0.4,0.2,0.5,0.4c0.1,0.2,0.2,0.3,0.3,0.5c0.1,0.2,0.1,0.4,0.1,0.6V78.2z
	 M13.5,79.9c0,0.1,0,0.1,0,0.1c0,0,0,0.1,0,0.1c0,0,0,0,0,0.1c0,0,0,0-0.1,0h-2.5c-0.1,0-0.1,0-0.2-0.1c-0.1,0-0.1-0.1-0.1-0.2v-4.7
	c0,0,0,0,0-0.1c0,0,0,0,0.1,0c0,0,0.1,0,0.1,0c0,0,0.1,0,0.2,0c0.1,0,0.1,0,0.2,0c0,0,0.1,0,0.1,0c0,0,0,0,0.1,0c0,0,0,0,0,0.1v4.4
	h2c0,0,0,0,0.1,0c0,0,0,0,0,0.1c0,0,0,0.1,0,0.1C13.5,79.8,13.5,79.9,13.5,79.9z"/>
<g>
	<defs>
		<polyline id="SVGID_1_" points="-15.1,-19.1 267.5,-19.1 267.5,160.3 -15.1,160.3 		"/>
	</defs>
	<clipPath id="SVGID_2_">
		<use xlink:href="#SVGID_1_"  style="overflow:visible;"/>
	</clipPath>
	<path class="st2" d="M3.5,18.6c0.2-1.8,1.6-3.5,4.1-5h117V8.5v5.1h121c2.6,1.6,4,3.3,4.1,5"/>
</g>
<g>
	<defs>
		<rect id="SVGID_3_" x="-15.1" y="-19.1" width="282.6" height="179.4"/>
	</defs>
	<clipPath id="SVGID_4_">
		<use xlink:href="#SVGID_3_"  style="overflow:visible;"/>
	</clipPath>
	<g class="st3">
		<text transform="matrix(1 0 0 1 118.2674 6.4053)"><tspan x="0" y="0" class="st4 st5">C</tspan><tspan x="3" y="0" class="st4 st5">h</tspan><tspan x="6.6" y="0" class="st4 st5">a</tspan><tspan x="9.6" y="0" class="st4 st5">i</tspan><tspan x="13.2" y="0" class="st4 st5">n</tspan></text>
	</g>
</g>
<rect x="62.2" y="27.9" class="st6" width="63.9" height="28.3"/>
<rect x="62.2" y="27.9" class="st1" width="63.9" height="28.3"/>
<g>
	<defs>
		<rect id="SVGID_5_" x="-15.1" y="-19.1" width="282.6" height="179.4"/>
	</defs>
	<clipPath id="SVGID_6_">
		<use xlink:href="#SVGID_5_"  style="overflow:visible;"/>
	</clipPath>
	<g class="st7">
		<text transform="matrix(1 0 0 1 79.5174 44.105)" class="st4 st5">[</text>
	</g>
</g>
<g>
	<defs>
		<rect id="SVGID_7_" x="-15.1" y="-19.1" width="282.6" height="179.4"/>
	</defs>
	<clipPath id="SVGID_8_">
		<use xlink:href="#SVGID_7_"  style="overflow:visible;"/>
	</clipPath>
	<g class="st8">
		<text transform="matrix(1 0 0 1 82.8177 44.105)" class="st4 st5">3</text>
	</g>
</g>
<g>
	<defs>
		<rect id="SVGID_9_" x="-15.1" y="-19.1" width="282.6" height="179.4"/>
	</defs>
	<clipPath id="SVGID_10_">
		<use xlink:href="#SVGID_9_"  style="overflow:visible;"/>
	</clipPath>
	<g class="st9">
		<text transform="matrix(1 0 0 1 86.1375 44.105)"><tspan x="0" y="0" class="st4 st5">,</tspan><tspan x="3" y="0" class="st4 st5"> </tspan></text>
	</g>
</g>
<g>
	<defs>
		<rect id="SVGID_11_" x="-15.1" y="-19.1" width="282.6" height="179.4"/>
	</defs>
	<clipPath id="SVGID_12_">
		<use xlink:href="#SVGID_11_"  style="overflow:visible;"/>
	</clipPath>
	<g class="st10">
		<text transform="matrix(1 0 0 1 92.7376 44.105)" class="st4 st5">4</text>
	</g>
</g>
<g>
	<defs>
		<rect id="SVGID_13_" x="-15.1" y="-19.1" width="282.6" height="179.4"/>
	</defs>
	<clipPath id="SVGID_14_">
		<use xlink:href="#SVGID_13_"  style="overflow:visible;"/>
	</clipPath>
	<g class="st11">
		<text transform="matrix(1 0 0 1 96.0374 44.105)"><tspan x="0" y="0" class="st4 st5">,</tspan><tspan x="3" y="0" class="st4 st5"> </tspan></text>
	</g>
</g>
<g>
	<defs>
		<rect id="SVGID_15_" x="-15.1" y="-19.1" width="282.6" height="179.4"/>
	</defs>
	<clipPath id="SVGID_16_">
		<use xlink:href="#SVGID_15_"  style="overflow:visible;"/>
	</clipPath>
	<g class="st12">
		<text transform="matrix(1 0 0 1 102.6673 44.105)" class="st4 st5">7</text>
	</g>
</g>
<g>
	<defs>
		<rect id="SVGID_17_" x="-15.1" y="-19.1" width="282.6" height="179.4"/>
	</defs>
	<clipPath id="SVGID_18_">
		<use xlink:href="#SVGID_17_"  style="overflow:visible;"/>
	</clipPath>
	<g class="st13">
		<text transform="matrix(1 0 0 1 105.9676 44.105)" class="st4 st5">]</text>
	</g>
</g>
<rect x="62.3" y="29.3" class="st14" width="3.4" height="25.5"/>
<rect x="62.3" y="29.3" class="st15" width="3.4" height="25.5"/>
<g>
	<defs>
		<rect id="SVGID_19_" x="-15.1" y="-19.1" width="282.6" height="179.4"/>
	</defs>
	<clipPath id="SVGID_20_">
		<use xlink:href="#SVGID_19_"  style="overflow:visible;"/>
	</clipPath>
	<g class="st16">
		<text transform="matrix(1 0 0 1 122.6175 25.4751)"><tspan x="0" y="0" class="st17 st18 st19">2</tspan><tspan x="4.2" y="0" class="st17 st18 st19">0</tspan></text>
	</g>
</g>
<rect x="122.7" y="29.3" class="st14" width="3.4" height="25.5"/>
<rect x="122.7" y="29.3" class="st15" width="3.4" height="25.5"/>
<g>
	<defs>
		<rect id="SVGID_21_" x="-15.1" y="-19.1" width="282.6" height="179.4"/>
	</defs>
	<clipPath id="SVGID_22_">
		<use xlink:href="#SVGID_21_"  style="overflow:visible;"/>
	</clipPath>
	<g class="st20">
		<text transform="matrix(1 0 0 1 66.3924 25.4751)"><tspan x="0" y="0" class="st17 st18 st19">1</tspan><tspan x="4.2" y="0" class="st17 st18 st19">5</tspan></text>
	</g>
</g>
<rect x="126.6" y="27.9" class="st6" width="122.2" height="28.3"/>
<rect x="126.6" y="27.9" class="st1" width="122.2" height="28.3"/>
<g>
	<defs>
		<rect id="SVGID_23_" x="-15.1" y="-19.1" width="282.6" height="179.4"/>
	</defs>
	<clipPath id="SVGID_24_">
		<use xlink:href="#SVGID_23_"  style="overflow:visible;"/>
	</clipPath>
	<g class="st21">
		<text transform="matrix(1 0 0 1 143.5677 44.105)"><tspan x="0" y="0" class="st4 st5">{</tspan><tspan x="3" y="0" class="st4 st5"> </tspan></text>
	</g>
</g>
<g>
	<defs>
		<rect id="SVGID_25_" x="-15.1" y="-19.1" width="282.6" height="179.4"/>
	</defs>
	<clipPath id="SVGID_26_">
		<use xlink:href="#SVGID_25_"  style="overflow:visible;"/>
	</clipPath>
	<g class="st22">
		<text transform="matrix(1 0 0 1 150.1673 44.105)"><tspan x="0" y="0" class="st4 st5">w</tspan><tspan x="3" y="0" class="st4 st5">i</tspan><tspan x="6.6" y="0" class="st4 st5">d</tspan><tspan x="9.7" y="0" class="st4 st5">t</tspan><tspan x="13.3" y="0" class="st4 st5">h</tspan><tspan x="16.3" y="0" class="st4 st5"> </tspan></text>
	</g>
</g>
<g>
	<defs>
		<rect id="SVGID_27_" x="-15.1" y="-19.1" width="282.6" height="179.4"/>
	</defs>
	<clipPath id="SVGID_28_">
		<use xlink:href="#SVGID_27_"  style="overflow:visible;"/>
	</clipPath>
	<g class="st23">
		<text transform="matrix(1 0 0 1 170.0179 44.105)" class="st4 st5">=</text>
	</g>
</g>
<g>
	<defs>
		<rect id="SVGID_29_" x="-15.1" y="-19.1" width="282.6" height="179.4"/>
	</defs>
	<clipPath id="SVGID_30_">
		<use xlink:href="#SVGID_29_"  style="overflow:visible;"/>
	</clipPath>
	<g class="st24">
		<text transform="matrix(1 0 0 1 173.3177 44.105)"><tspan x="0" y="0" class="st4 st5">&gt;</tspan><tspan x="3" y="0" class="st4 st5"> </tspan></text>
	</g>
</g>
<g>
	<defs>
		<rect id="SVGID_31_" x="-15.1" y="-19.1" width="282.6" height="179.4"/>
	</defs>
	<clipPath id="SVGID_32_">
		<use xlink:href="#SVGID_31_"  style="overflow:visible;"/>
	</clipPath>
	<g class="st25">
		<text transform="matrix(1 0 0 1 179.9173 44.105)" class="st4 st5">2</text>
	</g>
</g>
<g>
	<defs>
		<rect id="SVGID_33_" x="-15.1" y="-19.1" width="282.6" height="179.4"/>
	</defs>
	<clipPath id="SVGID_34_">
		<use xlink:href="#SVGID_33_"  style="overflow:visible;"/>
	</clipPath>
	<g class="st26">
		<text transform="matrix(1 0 0 1 183.2474 44.105)"><tspan x="0" y="0" class="st4 st5">,</tspan><tspan x="3" y="0" class="st4 st5"> </tspan></text>
	</g>
</g>
<g>
	<defs>
		<rect id="SVGID_35_" x="-15.1" y="-19.1" width="282.6" height="179.4"/>
	</defs>
	<clipPath id="SVGID_36_">
		<use xlink:href="#SVGID_35_"  style="overflow:visible;"/>
	</clipPath>
	<g class="st27">
		<text transform="matrix(1 0 0 1 189.8372 44.105)"><tspan x="0" y="0" class="st4 st5">h</tspan><tspan x="3" y="0" class="st4 st5">e</tspan><tspan x="6.6" y="0" class="st4 st5">i</tspan><tspan x="9.6" y="0" class="st4 st5">g</tspan><tspan x="13.2" y="0" class="st4 st5">h</tspan><tspan x="16.2" y="0" class="st4 st5">t</tspan><tspan x="19.8" y="0" class="st4 st5"> </tspan></text>
	</g>
</g>
<g>
	<defs>
		<rect id="SVGID_37_" x="-15.1" y="-19.1" width="282.6" height="179.4"/>
	</defs>
	<clipPath id="SVGID_38_">
		<use xlink:href="#SVGID_37_"  style="overflow:visible;"/>
	</clipPath>
	<g class="st28">
		<text transform="matrix(1 0 0 1 212.9974 44.105)" class="st4 st5">=</text>
	</g>
</g>
<g>
	<defs>
		<rect id="SVGID_39_" x="-15.1" y="-19.1" width="282.6" height="179.4"/>
	</defs>
	<clipPath id="SVGID_40_">
		<use xlink:href="#SVGID_39_"  style="overflow:visible;"/>
	</clipPath>
	<g class="st29">
		<text transform="matrix(1 0 0 1 216.2874 44.105)"><tspan x="0" y="0" class="st4 st5">&gt;</tspan><tspan x="3" y="0" class="st4 st5"> </tspan></text>
	</g>
</g>
<g>
	<defs>
		<rect id="SVGID_41_" x="-15.1" y="-19.1" width="282.6" height="179.4"/>
	</defs>
	<clipPath id="SVGID_42_">
		<use xlink:href="#SVGID_41_"  style="overflow:visible;"/>
	</clipPath>
	<g class="st30">
		<text transform="matrix(1 0 0 1 222.887 44.105)"><tspan x="0" y="0" class="st4 st5">3</tspan><tspan x="3" y="0" class="st4 st5"> </tspan></text>
	</g>
</g>
<g>
	<defs>
		<rect id="SVGID_43_" x="-15.1" y="-19.1" width="282.6" height="179.4"/>
	</defs>
	<clipPath id="SVGID_44_">
		<use xlink:href="#SVGID_43_"  style="overflow:visible;"/>
	</clipPath>
	<g class="st31">
		<text transform="matrix(1 0 0 1 229.5179 44.105)" class="st4 st5">}</text>
	</g>
</g>
<rect x="126.6" y="29.3" class="st14" width="3.4" height="25.5"/>
<rect x="126.6" y="29.3" class="st15" width="3.4" height="25.5"/>
<rect x="245.4" y="29.3" class="st14" width="3.4" height="25.5"/>
<rect x="245.4" y="29.3" class="st15" width="3.4" height="25.5"/>
<g>
	<defs>
		<rect id="SVGID_45_" x="-15.1" y="-19.1" width="282.6" height="179.4"/>
	</defs>
	<clipPath id="SVGID_46_">
		<use xlink:href="#SVGID_45_"  style="overflow:visible;"/>
	</clipPath>
	<g class="st32">
		<text transform="matrix(1 0 0 1 237.7679 25.4751)"><tspan x="0" y="0" class="st17 st18 st19">3</tspan><tspan x="4.2" y="0" class="st17 st18 st19">0</tspan></text>
	</g>
</g>
<rect x="3.9" y="27.9" class="st6" width="47.7" height="28.3"/>
<rect x="3.9" y="27.9" class="st1" width="47.7" height="28.3"/>
<g>
	<defs>
		<rect id="SVGID_47_" x="-15.1" y="-19.1" width="282.6" height="179.4"/>
	</defs>
	<clipPath id="SVGID_48_">
		<use xlink:href="#SVGID_47_"  style="overflow:visible;"/>
	</clipPath>
	<g class="st33">
		<text transform="matrix(1 0 0 1 17.8924 44.105)" class="st4 st5">“</text>
	</g>
</g>
<g>
	<defs>
		<rect id="SVGID_49_" x="-15.1" y="-19.1" width="282.6" height="179.4"/>
	</defs>
	<clipPath id="SVGID_50_">
		<use xlink:href="#SVGID_49_"  style="overflow:visible;"/>
	</clipPath>
	<g class="st34">
		<text transform="matrix(1 0 0 1 21.1927 44.105)"><tspan x="0" y="0" class="st4 st5">d</tspan><tspan x="3" y="0" class="st4 st5">a</tspan><tspan x="6.6" y="0" class="st4 st5">t</tspan><tspan x="9.6" y="0" class="st4 st5">a</tspan></text>
	</g>
</g>
<g>
	<defs>
		<rect id="SVGID_51_" x="-15.1" y="-19.1" width="282.6" height="179.4"/>
	</defs>
	<clipPath id="SVGID_52_">
		<use xlink:href="#SVGID_51_"  style="overflow:visible;"/>
	</clipPath>
	<g class="st35">
		<text transform="matrix(1 0 0 1 34.4173 44.105)" class="st4 st5">”</text>
	</g>
</g>
<rect x="3.9" y="29.3" class="st14" width="3.4" height="25.5"/>
<rect x="3.9" y="29.3" class="st15" width="3.4" height="25.5"/>
<g>
	<defs>
		<rect id="SVGID_53_" x="-15.1" y="-19.1" width="282.6" height="179.4"/>
	</defs>
	<clipPath id="SVGID_54_">
		<use xlink:href="#SVGID_53_"  style="overflow:visible;"/>
	</clipPath>
	<g class="st36">
		<text transform="matrix(1 0 0 1 39.6673 25.5552)"><tspan x="0" y="0" class="st17 st18 st19">1</tspan><tspan x="4.2" y="0" class="st17 st18 st19">4</tspan></text>
	</g>
</g>
<rect x="48.1" y="29.3" class="st14" width="3.4" height="25.5"/>
<rect x="48.1" y="29.3" class="st15" width="3.4" height="25.5"/>
<g>
	<defs>
		<rect id="SVGID_55_" x="-15.1" y="-19.1" width="282.6" height="179.4"/>
	</defs>
	<clipPath id="SVGID_56_">
		<use xlink:href="#SVGID_55_"  style="overflow:visible;"/>
	</clipPath>
	<g class="st37">
		<text transform="matrix(1 0 0 1 7.9173 25.4751)"><tspan x="0" y="0" class="st17 st18 st19">1</tspan><tspan x="4.2" y="0" class="st17 st18 st19">0</tspan></text>
	</g>
</g>
<rect x="45.5" y="98.2" class="st14" width="3.4" height="11.6"/>
<rect x="45.5" y="98.2" class="st15" width="3.4" height="11.6"/>
<rect x="55.8" y="98.2" class="st14" width="3.4" height="11.6"/>
<rect x="55.8" y="98.2" class="st15" width="3.4" height="11.6"/>
<rect x="45.5" y="116.9" class="st6" width="47.7" height="14"/>
<rect x="45.5" y="116.9" class="st1" width="47.7" height="14"/>
<g>
	<defs>
		<rect id="SVGID_57_" x="-15.1" y="-19.1" width="282.6" height="179.4"/>
	</defs>
	<clipPath id="SVGID_58_">
		<use xlink:href="#SVGID_57_"  style="overflow:visible;"/>
	</clipPath>
	<g class="st38">
		<text transform="matrix(1 0 0 1 59.5677 126.2554)" class="st4 st39">&lt;</text>
	</g>
</g>
<g>
	<defs>
		<rect id="SVGID_59_" x="-15.1" y="-19.1" width="282.6" height="179.4"/>
	</defs>
	<clipPath id="SVGID_60_">
		<use xlink:href="#SVGID_59_"  style="overflow:visible;"/>
	</clipPath>
	<g class="st40">
		<text transform="matrix(1 0 0 1 62.8924 126.2554)"><tspan x="0" y="0" class="st4 st39">d</tspan><tspan x="3" y="0" class="st4 st39">a</tspan><tspan x="6.6" y="0" class="st4 st39">t</tspan><tspan x="9.6" y="0" class="st4 st39">a</tspan></text>
	</g>
</g>
<g>
	<defs>
		<rect id="SVGID_61_" x="-15.1" y="-19.1" width="282.6" height="179.4"/>
	</defs>
	<clipPath id="SVGID_62_">
		<use xlink:href="#SVGID_61_"  style="overflow:visible;"/>
	</clipPath>
	<g class="st41">
		<text transform="matrix(1 0 0 1 76.1175 126.2554)" class="st4 st39">&gt;</text>
	</g>
</g>
<rect x="12.4" y="116.9" class="st0" width="31.7" height="14"/>
<g>
	<defs>
		<rect id="SVGID_63_" x="-15.1" y="-19.1" width="282.6" height="179.4"/>
	</defs>
	<clipPath id="SVGID_64_">
		<use xlink:href="#SVGID_63_"  style="overflow:visible;"/>
	</clipPath>
	<g class="st42">
		<text transform="matrix(1 0 0 1 16.4427 126.2554)"><tspan x="0" y="0" class="st18 st39">N</tspan><tspan x="3.6" y="0" class="st18 st39">o</tspan><tspan x="7.2" y="0" class="st18 st39">d</tspan><tspan x="10.2" y="0" class="st18 st39">e</tspan></text>
	</g>
</g>
<rect x="12.4" y="96.9" class="st0" width="31.7" height="14"/>
<g>
	<defs>
		<rect id="SVGID_65_" x="-15.1" y="-19.1" width="282.6" height="179.4"/>
	</defs>
	<clipPath id="SVGID_66_">
		<use xlink:href="#SVGID_65_"  style="overflow:visible;"/>
	</clipPath>
	<g class="st43">
		<text transform="matrix(1 0 0 1 16.4427 106.1802)"><tspan x="0" y="0" class="st18 st5">R</tspan><tspan x="3" y="0" class="st18 st5">a</tspan><tspan x="6" y="0" class="st18 st5">n</tspan><tspan x="9" y="0" class="st18 st5">g</tspan><tspan x="12" y="0" class="st18 st5">e</tspan></text>
	</g>
</g>
</svg>
